# xmcd CD database file
#
# Track frame offsets:
#	150
#	61487
#	116882
#	184180
#	237197
#	309525
#
# Disc length: 4307 seconds
#
# Revision: 0
# Processed by: cddbd v1.5.2PL0 Copyright (c) Steve Scherf et al.
# Submitted via: CDex 1.51
#
DISCID=5110d106
DTITLE=Joe Henderson - Four
DYEAR=1968
DGENRE=Jazz
TTITLE0=Autumn Leaves
TTITLE1=Four
TTITLE2=On The Trail
TTITLE3=Star Dust/Old Folks
TTITLE4=On Green Dolphin Street
TTITLE5=The Theme
EXTD=YEAR: 1968
EXTT0=
EXTT1=
EXTT2=
EXTT3=
EXTT4=
EXTT5=
PLAYORDER=
